# xmcd
#
# Track frame offsets:
# 150
# 15327
# 29515
# 42912
# 57080
# 71312
# 85225
# 99112
# 113025
# 125762
# 138422
# 151860
# 165185
# 178992
# 192265
# 205807
#
# Disc length: 2940 seconds
#
# Revision: 1
# Processed by: cddbd v1.4PL0 Copyright (c) Steve Scherf et al.
# Submitted via: CdCzar 4.3c
#
DISCID=c80b7a10
DTITLE=Various Artist - Mean Mothers
DYEAR=1900
DGENRE=blues
TTITLE0=Rosa Henderson - Can't Be Bothered With No Sheik
TTITLE1=Mary Dixon - Yoy Can't Sleep In My Bed
TTITLE2=Maggie Jones - You Ain't Gonna Feed In My Pasture Now
TTITLE3=Susie Edwards - Oh Yeah
TTITLE4=Bernice Edwards - Long Tall Mama
TTITLE5=Gladys Bently - How Much Can I Stand
TTITLE6=Bessie Brown - Ain't Much Good In The Best Of Men Nowadays
TTITLE7=Bertha Idaho - Move It On Out Of Here
TTITLE8=Martha Copeland - Good Times Mama
TTITLE9=Harlem Hannah - Keep Your Nose Out Of Mama's Buiness
TTITLE10=Lil Armstrong - Or Leave Me Alone
TTITLE11=Blue Lou Baker - I Don't Dig You Jack
TTITLE12=Rosetta Howard - Come Easy, Go Easy
TTITLE13=Ida Cox - One Hour Mama
TTITLE14=Lil Green - Why Don't You Do Right
TTITLE15=Billie Holiday - Baby Get Lost
EXTD=
EXTT0=
EXTT1=
EXTT2=
EXTT3=
EXTT4=
EXTT5=
EXTT6=
EXTT7=
EXTT8=
EXTT9=
EXTT10=
EXTT11=
EXTT12=
EXTT13=
EXTT14=
EXTT15=
PLAYORDER=
